<?xml version="1.0" encoding="UTF-8"?><svg id="b" xmlns="http://www.w3.org/2000/svg" viewBox="0 0 246.5929 246.5927"><g id="c"><path d="M46.5247,123.2965c0,42.332,34.4398,76.7714,76.7718,76.7714s76.7718-34.4394,76.7718-76.7714-34.4398-76.7718-76.7718-76.7718S46.5247,80.9644,46.5247,123.2965ZM123.2964,48.817c41.0679,0,74.4791,33.4114,74.4791,74.4795s-33.4112,74.4788-74.4791,74.4788-74.4791-33.4108-74.4791-74.4788S82.2285,48.817,123.2964,48.817Z" fill="#c82a31" stroke-width="0"/><path d="M210.48,36.1125C187.1924,12.825,156.23,0,123.2963,0S59.4,12.825,36.1125,36.1125C12.825,59.4002,0,90.3627,0,123.2964s12.825,63.8962,36.1125,87.1837c23.2875,23.2875,54.2499,36.1125,87.1837,36.1125s63.8962-12.8251,87.1837-36.1125c23.2879-23.2879,36.1129-54.25,36.1129-87.1837s-12.825-63.8962-36.1129-87.1839ZM123.2963,244.3C56.5746,244.3,2.2927,190.0181,2.2927,123.2964S56.5746,2.2923,123.2963,2.2923s121.004,54.2823,121.004,121.0042-54.282,121.0035-121.004,121.0035Z" fill="#c82a31" stroke-width="0"/><path d="M191.3931,67.6193c1.1239-1.2005,1.8833-1.0825,3.0279-.2367.6392.4722,1.4899.7362,2.2253.0413.6147-.5809.956-1.2355.6995-2.1614-.241-.87-.6995-1.9848.4886-2.4677,1.0674-.4339,2.209-.3961,3.2221.4504,1.0815.9037,2.1985,1.7896,3.4005,2.5175,1.1928.7224,2.5231,2.3491,3.9017,1.0059,1.1671-1.1371-.0107-2.6282-.708-3.8041-.6522-1.0998-.3404-1.7175.7243-2.2029,1.5884-.7243,3.0126-1.7755,4.6957-2.3235.5568-.1813,1.2767-.4404,1.2288-1.1596-.0438-.6553-.3412-1.4547-1.0688-1.5804-2.1162-.3658-1.4026-1.1967-.4558-2.1577.3766-.3822.682-.8341,1.0535-1.222.4602-.4808.7497-.9596.2565-1.5849-.4531-.5746-1.0141-.5876-1.628-.3202-.7396.3222-1.4816.6398-2.2134.9792-1.1935.5536-2.3753.5153-3.7095.092.2426-.3732.3741-.5998.5288-.8093.6603-.8945,1.8641-1.9067.5303-2.8956-1.3268-.9837-1.934.3924-2.5609,1.3493-1.0746,1.6404-2.6791,2.6342-4.3553,3.5439.7897-1.4396,2.2527-2.2818,2.9689-3.743.267-.5447.6818-1.1404.1854-1.6707-.546-.5832-1.1499-.0477-1.6342.23-1.7119.9813-3.0424,2.4333-4.4384,3.7913-.6949.676-1.1976.7855-2.0435.1419-1.2206-.9288-2.5433-1.7576-4.0774-2.1434-.7675-.193-1.5833-.2059-2.0376.4433-.5688.8127.2528,1.35.7313,1.85,1.0506,1.0975,2.4796,1.5863,3.8155,2.2161,1.9711.9294,3.7705,2.0901,5.0767,3.9821-1.5671-.8251-3.1396-1.6403-4.699-2.4799-.7044-.3793-1.3065-.2443-1.82.3071-.5826.6256-.3188,1.2592.1066,1.8257.2797.3725.6661.663.969,1.0205.4465.5272,1.8549.6318,1.0386,1.7328-.8117,1.0948-1.5466.0371-2.2028-.407-.9442-.639-1.9117-1.0015-3.0329-.6124-2.0826.7227-3.5178,4.3547-2.5169,6.3312.9883,1.9517,3.3159,3.2113,4.3271,2.1311ZM209.2509,55.9023c.4687-.0386.909.0735,1.1256.6077-.3256.6168-.8978.9496-1.5199,1.1531-.563.1841-.9238-.2087-.9548-.7035-.0576-.9198.6831-1.0024,1.3491-1.0573ZM190.5878,62.0332c.587.0299.9348.4543.9817,1.1014-.1738.6432-.7036.7088-1.25.6749-.5217-.0325-.9321-.2947-.8676-.8741.0701-.6292.5773-.9306,1.1359-.9021Z" fill="#c82a31" stroke-width="0"/><path d="M69.6006,47.7107c.8633,1.121,1.8737,2.1217,3.1077,2.8534.771.457,1.6732.9179,2.424.2316.7703-.704.326-1.6254-.0917-2.4127-.2197-.4142-.5279-.7806-.7621-1.1882-1.1462-1.9949-1.5594-4.1384-1.2475-6.4167.0839-.613.188-1.314,1.0495-1.1312.8055.171,1.0123.7967.8127,1.5525-.0855.324-.2402.6291-.3366.9509-.5994,2.0009.041,3.7335,1.6869,4.7026,1.7989,1.0592,2.9308-.1226,4.0145-1.2299,1.5755-1.6099,2.6042-3.5585,3.3884-5.6745.4573-1.2339,1.222-2.3917,2.8718-1.7326,1.2372.4943,1.3917,1.8925.3999,3.4454-.8324,1.3035-1.7381,2.5602-2.5964,3.8475-.2175.3262-.5425.7269-.226,1.0918.4294.4951.9078.0585,1.2412-.184,1.421-1.0338,2.7164-2.2285,3.7091-3.6808,2.0846-3.0501,1.8776-4.9184-2.3306-6.7551-.9423-.4113-1.5666-.8659-2.0214-1.7513-.4264-.83-.9343-1.6427-1.5381-2.3505-.7246-.8495-1.6647-.9809-2.4189-.0479-1.2065,1.4925-2.2226,3.1375-3.7112,4.3985-.3583.3036-.1962,1.2038-.9857,1.0161-.5807-.138-.6819-.792-.9199-1.2595-.5049-.9919-.2062-1.986.1198-2.9399.6363-1.8614,1.6116-3.5526,2.7956-5.1164,1.1373-1.5023,2.3657-2.9379,3.4596-4.4702.8391-1.1755.386-2.2115-.9174-1.9521-3.1512.6271-6.4359.6085-9.4531,1.9171-1.7861.7747-2.3209,2.095-1.9373,3.9166.4645,2.2061,1.5342,4.147,2.591,6.1026.436.8067.9822,1.5785.7394,2.6411-.6002,2.6262-.9646,5.2919-1.088,7.9877-.017.3733.1328.8926-.3853,1.0205-.4516.1115-.7057-.3049-.9402-.6223-2.3503-3.18-4.1172-6.6218-4.6703-10.5918-.144-1.0339-.0701-2.0123.905-2.704.8642-.6131.9011-1.4799.4796-2.3362-.2948-.5988-.9023-.7923-1.5558-.62-.9488.2501-1.8031.6223-1.8513,1.8097-.0327.8073-.0745,1.6141-.12,2.5854-.2792,1.1886-.0248,2.4912.2506,3.8243.903,4.3696,3.4243,7.8513,6.0588,11.2725ZM81.6371,33.0577c.9158.2359,1.1995.9955,1.2599,1.798.0731.9719-.5477,1.4886-1.4689,1.5025-1.0439.0157-1.0588-.8533-1.0828-1.5652-.0289-.8587.2579-1.5779,1.2918-1.7353ZM81.2928,38.5297c.6813-.2138.7191.3698.707.9657-.3276.9709-.4323,2.3384-1.7764,2.5258-.747.1041-1.2358-.8268-1.2051-1.5917.0552-1.3754,1.2825-1.5884,2.2745-1.8998ZM76.1818,43.0811c.6845-.2751.8316.4816,1.2184.7854.3973.3121.806.6096,1.2121.9152-.6558.7111-1.2115.9302-1.8193.751-.6411-.1891-.9479-.7019-.9197-1.3829.0159-.3845-.1205-.8964.3085-1.0687ZM71.7878,26.796c-.2394-1.1523.54-1.8077,1.6392-2.2313,1.3313-.5131,2.6818-1.0153,4.0627-.1886.5091.3048.4106.7795.1521,1.2358-.9929,1.7535-1.9707,3.5156-2.9741,5.2631-.7883,1.3728-1.454.8374-1.9813-.1981-.5865-1.1517-.8743-2.3942-.8986-3.8809Z" fill="#c82a31" stroke-width="0"/><path d="M95.9417,26.6763c.8934.2147,1.7245.0383,2.4557-.5735,1.9152-1.6025,4.396-2.3401,6.2339-4.0783.4235-.4005,1.0698-.7642,1.6376-.3035.4557.3696.344.9818.1611,1.5104-.2693.7784-.5367,1.5959.0115,2.3199.9846,1.3005.4733,2.4099-.3496,3.4802-.8602,1.1188-1.8139,2.1673-2.6475,3.3045-.5262.7179-.9486,1.6119-.1076,2.3565.9327.8257,1.5815.0313,2.1978-.6009.2818-.2891.5641-.58.8196-.8917.8346-1.0182,1.4579-1.1194,1.8787.3364.1845.6383.4694,1.2672.8145,1.8361,1.5035,2.4779,5.0228,3.0916,7.3435,1.3273.5249-.399.9346-.8712.6472-1.5254-.2808-.639-.9388-.4138-1.429-.3204-.7892.1503-1.5477.4604-2.3361.6182-.6185.1238-1.3116.0049-1.584-.6006-.3516-.7816.4179-1.0226.9152-1.3101,1.1099-.6416,2.2234-1.2779,3.0844-2.249,1.1014-1.2424,1.6683-2.7347,1.0067-4.2849-.6469-1.5157-2.1328-1.6036-3.6276-1.5212-.6634.0366-1.6453.4982-1.9655-.3772-.2829-.7738.389-1.5049.8348-2.1751.4177-.6281,1.1181-.686,1.7578-.878,1.7713-.5317,3.3708-1.3632,4.5831-2.8007.8096-.96,1.5386-2.1216.878-3.3066-.6902-1.2382-2.0834-.9955-3.2666-.7371-1.6174.3533-3.2123.8087-4.8169,1.2202-.0695-.1366-.1389-.2732-.2083-.4098.2934-.3475.5534-.7316.8864-1.0358,1.0519-.9608,1.1594-2.118.5916-3.3076-.5534-1.1592-1.6792-1.2551-2.7925-1.1135-1.8206.2314-3.549.7955-5.1021,1.7803-1.725,1.0939-1.7103,1.7636.1108,2.569,1.4115.6242,1.3804,1.2885.3029,2.1674-2.5494,2.0795-5.0493,4.2227-8.0657,5.6479-.6479.3062-1.2456.8165-1.7266,1.3571-.906,1.0184-.4711,2.2466.8728,2.5695ZM113.0489,27.4642c1.1089-.0964,1.1058.8339,1.1187,1.5202.0229,1.2214-1.007,1.7585-1.9069,2.0524-.905.2955-.7171-.6677-.8535-1.2341.1878-1.0166.1849-2.2117,1.6417-2.3384ZM112.3298,18.1528c1.0015-.3653,2.0542-.5897,3.0831-.881.3258-.0923.6644-.2236.8608.1808.1706.3513-.0149.6553-.2422.9065-.8926.9862-2.0813,1.4063-3.2681,1.7462-.7498-.2386-1.8115-.1155-1.9757-.8622-.2277-1.0352.9397-.8705,1.5421-1.0903Z" fill="#c82a31" stroke-width="0"/><path d="M130.8052,34.5167c.9162-.0966,1.3196-.8624,1.8583-1.4452.811-.8777,1.5076-1.9034,2.7808-2.1474.4259.4865.0845.9406.0449,1.3856-.3438,3.8702,1.3677,5.4201,5.2743,4.9992,1.8058-.1945,3.1528-.8774,4.2425-2.3198,2.2827-3.0216,4.4398-6.0945,5.402-9.8375.8173-3.1793.4718-4.2518-2.173-6.2513-.6198-.4685-.3084-.8713-.1436-1.3935.588-1.863-.8865-2.6365-2.0933-3.1461-1.3232-.5588-3.0863-.5563-3.494,1.2477-.4781,2.1157-1.9549,2.5194-3.6236,2.8776-2.8305.6076-5.6599,1.2072-8.2452,2.5975-.4115.2213-.9674.3163-.9057.9163.0593.5764.593.7003,1.0556.754,1.5373.1784,3.0796.3143,4.6197.4695,1.8891.1904,2.0363.4607.9227,2.0327-1.9148,2.7029-4.2385,5.0317-6.7056,7.2319-.4363.3892-1.3223.7412-.826,1.6013.4724.8188,1.2913.5032,2.0094.4275ZM143.2801,23.2654c.8488-.3224,1.7076-.4866,2.449.2034.7556.7032.3529,1.5273.038,2.235-1.1122,2.5-2.1325,5.0762-4.3967,6.8354-.7819.6075-1.5947,1.5472-2.6401,1.0786-1.0493-.4704-.3615-1.7106-.6309-2.3553-.0551-3.0749,2.5587-7.0012,5.1807-7.9972Z" fill="#c82a31" stroke-width="0"/><path d="M37.2648,57.2128c3.0087,2.7244,6.5621,4.6739,9.9022,6.9217.8943.6019,1.3309,1.2161,1.3403,2.2596.0172,1.9309-.6384,3.6996-1.2243,5.489-.8147,2.4883-1.7713,4.9359-2.135,7.1787-.09,1.3477.2616,2.3066,1.2338,2.3361.8082.0246,1.7191-.2969,2.004-1.5386.7222-3.1491,1.9087-6.1713,3.2861-9.0831,1.869-3.9509,3.9999-7.8011,7.3072-10.7504,1.2884-1.149,2.2775-2.429,3.2051-3.8292.6521-.9842.5229-1.7242-.432-2.4006-.8628-.6111-1.5273-.7505-2.4625.0829-2.1327,1.9005-3.8989,4.0569-5.4663,6.4348-1.1547,1.7518-2.1835,1.6271-4.5209-.2078-1.7421-1.3677.2914-1.6584.6964-2.3726.6811-1.2009,1.7858-2.1879.9774-3.8383-.6158-1.2571-1.6505-1.5199-2.8026-1.5786-1.2802-.0652-2.3319.4722-3.1213,1.5258-1.0494,1.4006-2.2136,1.7438-3.6562.4429-.8985-.8102-2.0569-1.0324-3.2239-.6995-.8856.2526-1.9374.4542-2.1967,1.5394-.249,1.0424.6482,1.5071,1.2892,2.0876Z" fill="#c82a31" stroke-width="0"/><path d="M160.8011,42.0674c3.1478.7518,6.1884.5451,9.2859-.6102,3.4835-1.2992,6.7982-3.8283,10.4738-2.1679,1.3453-.0422,2.4119.218,2.9158-.8622.5062-1.0848-.2554-1.7504-.9952-2.3817-.3937-.3359-1.1538-.8779-.6632-1.2443,2.1163-1.5807.332-2.9524-.1015-4.3708-.4543-1.4865-1.3908-1.5591-1.9869-.2271-1.4075,3.1446-3.6093,4.0546-6.7931,2.9282-.4326-.153-.9334-.1063-1.3998-.1719-2.0537-.2891-4.1634-.3018-6.0436-1.4012-.4199-.2455-.8972-1.0711-1.5132-.2411-.4406.5936-.4691,1.2422-.0825,1.8922.5384.9052,1.3183,1.5059,2.2997,1.8716,1.6453.613,3.3198,1.0959,5.0745,1.2807.3703.039.8793-.0564,1.0123.4482.1426.5408-.2542.853-.6365,1.1493-2.9337,2.2739-7.3816,2.3516-10.5372.0549-.8746-.6365-1.3283-.3751-1.7881.3304-1.2004,1.8419-.6796,3.2073,1.4788,3.7228Z" fill="#c82a31" stroke-width="0"/><path d="M175.9147,43.2752c-4.2017-1.6414-4.188-1.7044-4.362,2.8086-.0779,2.019.4529,3.1459,1.656,4.0732,1.4203,1.0948,2.6749.8442,3.9786-.1718.2964-.231.7432-.2964,1.1335-.3748,1.9445-.3905,2.537-1.6177,1.4046-3.2571-.9471-1.3712-2.1561-2.4316-3.8107-3.0781Z" fill="#c82a31" stroke-width="0"/><path d="M86.1916,121.6023c.0092,0,.0184,0,.0277,0,0,2.8961.0021,5.7921-.0004,8.688-.0068,7.9478-.026,15.8955-.0065,23.8432.0019.7675-.4117,1.8389,1.0516,1.9308,4.9717.3122,9.9381.6769,14.9265.6479,18.3046-.1061,36.6108-1.1999,54.9138.0829,2.808.1968,3.949-.7953,3.8168-3.5591-.2828-5.91-.5159-11.8166-.4187-17.7363.1647-10.0316-.0622-20.0639.3127-30.0988.2322-6.2124,1.0958-12.5119-.9426-18.6364-.1199-.3604-.109-.8364.0186-1.1956.9996-2.8135.6328-5.7257.649-8.6039.0281-5.0354-.6149-5.6481-5.7423-5.6653-1.1447-.0038-2.2902.0211-3.4341.0651-7.4064.2852-14.8116.2369-22.2209.0633-5.1161-.1199-10.2479-.2252-15.3523.0466-3.2252.1717-6.4609.5155-9.658.202-4.7783-.4686-9.5462-.3847-14.3051-.1228-4.221.2324-4.1964.4012-4.3908,4.674-.2206,4.8459.5585,9.6472.6773,14.4614.2541,10.2987.0778,20.608.0778,30.913ZM92.3847,74.7046c.6013-.0635,1.2111-.2062,1.8046-.1586,8.2805.6642,16.5676.1026,24.851.1587,2.5277.0172,3.0655.9798,1.8181,3.1919-1.5533,2.7546-3.9536,3.8312-7.0354,3.8174-5.1874-.023-10.3753.0511-15.563.0775-3.4971.0178-4.8768,1.667-4.2213,5.1497.6158,3.2714,2.2782,6.1752,3.3965,9.2711.6589,1.8241,2.3383,1.2778,3.6527.7848,1.4903-.5591.7476-1.6401.4694-2.6732-.6113-2.2712-1.8258-4.3331-2.1776-6.6987-.183-1.2297.2032-1.6326,1.3856-1.8619,2.1229-.4118,4.2474-.6903,6.4039-.7027.657-.0038,1.4217-.0161,1.6667.8199.2542.8675-.2797,1.4301-.9325,1.8276-.6867.4182-1.4382.7303-2.1643,1.0829-.4286.2081-.8598.3896-.8678.9854-.009.6669.4125.9423.9458,1.1478.2513.0968.4967.2089.7429.3185,2.0443.9109,2.3638,2.2357.5459,3.5126-1.9058,1.3386-.9317,1.8205.3637,2.4783.4797.2435.9293.5455,1.4019.8041.761.4165,1.0427,1.8952,2.2324,1.2754,1.4834-.7728,2.9659-1.6601,3.9467-3.0694.4764-.6846-.2523-1.062-.7565-1.3861-1.9644-1.2625-2.0046-1.7665-.2307-3.0873,1.8781-1.3984,1.8229-2.0262-.2156-3.2547-.6261-.3773-1.2225-.8345-1.7446-1.3449-.504-.4927-.7213-1.1829-.4549-1.8622.2888-.7364,1.0266-.496,1.5925-.5205,5.6191-.2434,5.9575.0247,7.3451,5.5261.2985,1.1832.4683,2.3691.4639,3.5925-.0043,1.2114-.1051,2.4658.1691,3.6224.2713,1.1453.8267,2.447,2.3716,2.2949,1.4448-.1422,1.6724-1.3926,1.7409-2.5532.1112-1.8823.0306-3.7789.1995-5.6544.3969-4.4082,3.4711-7.0514,7.3638-6.4152.4799.0784,1.2125-.11,1.2808.6589.0483.5439-.225,1.1024-.7004,1.3867-.6873.4109-1.4428.7094-2.1762,1.0405-.4453.201-.8621.4078-.8418.9949.0195.5681.3752.7848.873.9489.9774.322,2.4586.3246,2.4715,1.6157.0134,1.3538-1.3882,1.8457-2.4943,2.3563-.474.2188-1.1385.2662-1.175.9304-.036.6547.3425,1.0988.9815,1.3681,1.3291.5603,2.3348,1.5764,3.3777,2.5309.9761.8934,1.8163,1.0582,2.5748-.2958.6233-1.1127,1.736-1.66,2.8703-2.1245.6093-.2495,1.0172-.6373,1.1042-1.3144.1041-.8109-.5779-.9746-1.066-1.2883-.225-.1446-.4933-.2211-.7225-.3603-.6595-.4006-1.5928-.5788-1.3862-1.6985.166-.8993.6678-1.4063,1.5834-1.5857.642-.1258,1.3262-.2438,1.3534-1.1946.0267-.9298-.6234-1.0629-1.2472-1.3215-.4275-.1772-.8569-.3919-1.2179-.6758-.3862-.3038-.5841-.7709-.4315-1.2654.1452-.4708.6069-.4863,1.0067-.4964,2.4893-.0629,4.9847-.258,7.4514.2761.8105.1755,1.0743.3995.967,1.4836-.301,3.0392-1.4156,5.8679-1.9373,8.8419-.3139,1.7889.6992,1.8411,1.9031,1.9873,1.2881.1564,2.2789.0805,2.3145-1.6211.0443-2.1161.6752-4.1126,1.5947-6.0076.4797-.9886.6724-2.0359.8481-3.1016.7542-4.5757-.0433-5.6483-4.7816-5.7941-4.9148-.1512-9.8364-.1583-14.7539-.111-2.2093.0212-3.9062-.7417-5.2598-2.4513-.791-.9991-1.5341-2.0522-2.6036-2.8014-.4246-.2974-1.0551-.5259-.8926-1.1984.1984-.8218.9481-.611,1.5105-.613,4.7802-.0173,9.5605-.0099,14.3408-.0099.0001.1396.0003.2793.0005.4189,4.7165,0,9.433-.014,14.1495.0062,2.2054.0094,3.7233,1.3157,3.524,3.4763-.6588,7.145.5316,14.2571.1639,21.4-.4222,8.2032-.6569,16.4193-.7964,24.6328-.1396,8.217-.0475,16.4377-.0847,24.6568-.0151,3.338-1.7907,5.1992-5.0582,4.6868-7.9188-1.2419-15.8608-.4782-23.7882-.5913-9.094-.1297-18.1921-.0564-27.2875.029-2.912.0273-5.7684-.3401-8.6446-.6349-1.1085-.1136-1.6075-.4245-1.6507-1.6985-.2298-6.7736.2496-13.532.2995-20.2975.0317-4.2975.0607-8.6071-.2089-12.8925-.5804-9.2252-.6978-18.4568-.2587-27.6755.1933-4.0571-.3047-8.0535-.2795-12.0841.0125-1.9866.8816-2.8271,2.6911-3.0184Z" fill="#c82a31" stroke-width="0"/><path d="M99.371,147.7231c2.8268-.0516,5.6552-.0148,8.483-.0148v-.1805c2.7609,0,5.5217.0107,8.2825-.0064.8515-.0053,1.8518.1785,1.8057-1.2324-.0401-1.227-.1207-2.2951-1.7917-2.2844-2.0182.0129-4.0598-.3046-6.0496-.0909-2.0965.225-3.9806-.4821-5.9596-.7614-.718-.1014-1.1002-.4777-.8725-1.2531.2264-.7711.3452-1.5997.7099-2.2995,1.4653-2.8109,2.7012-5.7078,3.6949-8.7194.8557-2.5933,2.4619-3.7433,5.2327-3.8825,1.0082-.0507,2.0201-.0245,3.03-.0463,1.9442-.0419,2.7104-1.0305,2.0319-2.8006-.4348-1.1343-1.5522-1.3811-2.6426-1.4892-1.2703-.126-2.549-.1725-3.8174-.3128-.954-.1055-1.3797-.6464-1.3015-1.6624.1394-1.8112.1765-3.6299.28-5.4442.0881-1.5442.7075-2.4901,2.4686-2.5289,1.2629-.0278,2.52-.3741,3.7766-.5953.7683-.1352,1.4108-.3578,1.3966-1.3737-.0155-1.1069-.7687-1.1035-1.5142-1.1572-.6713-.0483-1.3474-.0378-2.0175-.0969-3.7778-.333-4.0693-.5079-4.2356-4.3497-.1087-2.511-1.7755-2.0096-3.2546-2.0914-1.9772-.1093-1.4892,1.3392-1.4164,2.3678.4187,5.918.5562,11.8325.0714,17.7534-.4277,5.2225-2.5453,9.8173-5.1554,14.2553-1.4949,2.5418-2.882,5.135-3.1029,8.1937-.1063,1.4714.3383,2.1315,1.8677,2.1036Z" fill="#c82a31" stroke-width="0"/><path d="M130.4478,112.3351c.4703-.0167.9424.0275,1.4139.0347q5.4045.0818,5.3151,5.5493c-.0756,4.4949-.0671,4.0724-3.8458,4.3991-.8042.0695-1.6029.2016-2.4067.2786-.9017.0864-1.8827.0958-1.6026,1.441.2252,1.0815-.1874,2.6205,1.7682,2.5507,1.5478-.0552,3.0993-.0701,4.6474-.0328,1.5211.0367,2.5532.7399,2.8324,2.3347.8434,4.8169,2.1678,9.4377,5.2763,13.3712.7683.9722.3971,1.6382-.8209,1.7706-1.3385.1454-2.6804.2632-4.023.3651-1.0399.0789-2.0228.0538-1.9468,1.6136.0665,1.3671.3919,2.1717,1.9676,2.0523,1.2723-.0964,2.5577-.0195,3.8375-.0195.0001.0312.0002.0626.0004.0938,1.2787-.0568,2.558-.1043,3.8362-.1723,3.0224-.1608,4.1599-2.0051,2.5509-4.5961-2.3632-3.8052-3.6816-8.0576-5.5021-12.0881-2.2872-5.0637-3.6362-10.3711-3.1153-16.0662.3054-3.3392.0496-6.7235.4609-10.0729.1951-1.5889-.8149-1.9216-2.1265-1.964-1.2769-.0413-1.7596.4821-1.8105,1.7873-.1384,3.5488-.3748,3.7574-3.8964,4.1576-.9342.1061-1.8836.1381-2.8239.1152-1.0165-.0247-1.4824.3605-1.4539,1.4142.0272,1.0084.2703,1.7255,1.4676,1.6829Z" fill="#c82a31" stroke-width="0"/><path d="M121.7265,145.8411c.1882,1.2784.653,1.9238,2.033,1.9219,2.7584-.0038,5.517.1037,8.2755.1653.9431.021,1.7731-.0717,1.8007-1.332.0245-1.1175-.131-2.0139-1.537-2.0922-1.4761-.0823-2.947-.3238-4.4222-.3427-1.6938-.0217-2.4656-.664-2.3241-2.4474.3464-4.3669.193-8.744.1222-13.1183-.0936-5.7803-.431-11.5564.1844-17.3395.2331-2.191-.02-4.4348-.0682-6.6542-.0333-1.5413-1.2439-1.2826-2.1999-1.4106-1.0832-.1451-1.4449.4083-1.4166,1.4012.1252,4.3672-.8491,8.6902-.4935,13.0726.1787,2.2029.2812,4.4199.2618,6.6293-.0365,4.1599-.6233,8.3046-.3723,12.4767.106,3.0198-.2891,6.046.156,9.0703Z" fill="#c82a31" stroke-width="0"/><path d="M100.2478,176.1238c-.0043-.3808-.0063-1.0799-.0063-2.0977,0-.627.0233-1.9295.0707-3.907.047-1.9775.0793-3.6223.0967-4.9346h-2.3302c-1.3217.384-2.611.7377-3.8679,1.0608-1.2573.3234-2.4869.6193-3.6882.8882v1.3152l4.1838-1.5552c.0083.1985.0146.4078.0189.6287.0044.2209.0067.5104.0067.8688,0,1.9648-.0193,3.7218-.058,5.2706s-.088,2.72-.1481,3.5137l-2.7934.2591v.5375c1.0125-.0286,1.9717-.0504,2.8771-.0648.9055-.0145,1.7742-.0215,2.6066-.0215.8411,0,1.7205.0083,2.639.0242.9182.0159,1.8923.0368,2.9222.0621v-.5375l-2.4973-.3551c-.0174-.2559-.0281-.5746-.0324-.9554Z" fill="#c82a31" stroke-width="0"/><path d="M120.1618,165.9814c-1.1285-.7424-2.8384-1.1135-5.1295-1.1135-2.532,0-4.4819.4047-5.8506,1.2142-1.3691.8099-2.0534,1.9569-2.0534,3.4418,0,1.1135.4592,2.0049,1.3773,2.6734.9182.6691,2.1371,1.0034,3.6559,1.0034.5836,0,1.1605-.0639,1.7316-.192.5706-.1278,1.1519-.3263,1.7442-.5952-.2748,1.3889-1.0642,2.5247-2.3685,3.4079-1.3047.8832-3.0552,1.4722-5.252,1.7664v.5281h2.2137c3.5532-.6782,6.3786-1.8144,8.477-3.4079,2.098-1.5936,3.1472-3.3794,3.1472-5.3569,0-1.504-.5643-2.6272-1.6929-3.3696ZM115.9334,171.2806c-.3522.48-.8285.72-1.4291.72-.7207,0-1.3237-.3342-1.8086-1.0031s-.7274-1.5314-.7274-2.5874c0-.8576.2144-1.5438.6437-2.0591.4292-.5151.9911-.7728,1.6865-.7728.6863,0,1.2182.3216,1.5961.9648.3775.6431.5663,1.5599.5663,2.7503,0,.8449-.1761,1.5072-.5276,1.9872Z" fill="#c82a31" stroke-width="0"/><path d="M137.2824,170.7287c-.9655-.6432-2.4005-.9648-4.3058-.9648-.8494,0-1.6542.0448-2.4136.1343-.7593.0898-1.491.2274-2.1948.4129.017-.371.0407-.72.0707-1.0463.03-.3266.0663-.637.1094-.9312,2.1628-.0065,3.8058-.0289,4.9301-.0674,1.1242-.0383,2.021-.1022,2.6904-.192.4122-.0574.693-.1343.8434-.2303.15-.096.2721-.2495.3668-.4609l1.3-2.6496c-.6867.1985-1.5104.3425-2.4716.432-.9612.0898-2.2398.1343-3.8359.1343-.7123,0-1.4528-.008-2.2205-.0239-.7684-.0159-1.5984-.04-2.4909-.0721-.0087.1281-.0217.336-.0387.624-.1031,2.2338-.1718,4.0416-.2057,5.4243l.2444.1437c.3262-.1661.6606-.2896,1.0042-.3696.3431-.0798.6993-.1199,1.0682-.1199,1.1329,0,2.0767.2927,2.8321.8785.755.5854,1.1329,1.3264,1.1329,2.2223,0,.9474-.4186,1.7808-1.2554,2.5009-.8367.72-1.7829,1.0799-2.8384,1.0799-.7637,0-1.358-.1693-1.7829-.5085-.4245-.3393-.6369-.8193-.6369-1.4401v-.1537l-.1418-.0766c-.1201.0639-.2961.1502-.5276.2592-.8067.4031-1.2103.6944-1.2103.8735,0,.3905.541.7745,1.6222,1.1521,1.0812.3775,2.3685.5663,3.8616.5663,2.4203,0,4.3489-.4238,5.7863-1.2719,1.4374-.8479,2.1564-1.979,2.1564-3.3935,0-1.2672-.4829-2.2225-1.4484-2.8657Z" fill="#c82a31" stroke-width="0"/><path d="M153.5406,176.1238c-.0043-.3808-.0063-1.0799-.0063-2.0977,0-.627.0233-1.9295.0707-3.907.047-1.9775.0793-3.6223.0967-4.9346h-2.3302c-1.3217.384-2.611.7377-3.8679,1.0608-1.2573.3234-2.487.6193-3.6882.8882v1.3152l4.1838-1.5552c.0083.1985.0146.4078.0189.6287s.0067.5104.0067.8688c0,1.9648-.0193,3.7218-.058,5.2706s-.0881,2.72-.1481,3.5137l-2.7934.2591v.5375c1.0125-.0286,1.9716-.0504,2.8771-.0648.9055-.0145,1.7742-.0215,2.6066-.0215.8411,0,1.7205.0083,2.639.0242.9181.0159,1.8923.0368,2.9222.0621v-.5375l-2.4973-.3551c-.0174-.2559-.0281-.5746-.0324-.9554Z" fill="#c82a31" stroke-width="0"/><path d="M22.9252,95.905c.468.5595,1.0386.9461,1.7111,1.1589.7416.235,1.4141.2764,2.0167.124.6034-.152,1.1376-.4585,1.6032-.9185.4664-.46,1.0172-1.2233,1.655-2.2891.6373-1.0662,1.129-1.709,1.4745-1.9282.2717-.1725.5461-.2144.8237-.1263.3044.0963.507.2985.6093.6069.1588.4789.1292,1.0626-.0884,1.7509-.2113.6669-.5019,1.125-.8719,1.3749-.3701.25-.8719.3298-1.5069.2401l-.6469,2.4017c1.0895.3044,2.0748.1868,2.9565-.353.8813-.5398,1.5554-1.5455,2.0222-3.0185.2859-.9015.3933-1.7142.3234-2.438s-.3116-1.3375-.7242-1.8409c-.4127-.5039-.9182-.8506-1.5156-1.0397-.9284-.2942-1.8295-.1837-2.7034.3321-.6207.3668-1.29,1.1349-2.0076,2.3049-.5583.9094-.9291,1.4875-1.1132,1.7347-.2721.3597-.5319.59-.7783.691-.246.1011-.5082.1078-.7858.0197-.4316-.137-.7483-.4501-.9481-.9394-.2002-.4893-.1797-1.1147.0624-1.8777.2283-.7203.5908-1.2352,1.0879-1.544.4976-.3096,1.1551-.4111,1.9725-.3041l.5067-2.376c-1.362-.2614-2.5111-.1035-3.4489.4746-.9371.5773-1.6412,1.608-2.1111,3.0912-.323,1.0192-.4501,1.9152-.381,2.6888.0683.7731.3376,1.4397.8063,1.9989Z" fill="#c82a31" stroke-width="0"/><polygon points="31.2683 108.1504 26.5095 107.2473 27.417 102.4636 32.1761 103.3668 32.6393 100.9252 20.548 98.6305 20.0848 101.0724 25.3719 102.0754 24.4636 106.8591 19.1769 105.8565 18.7137 108.2972 30.8055 110.5916 31.2683 108.1504" fill="#c82a31" stroke-width="0"/><path d="M30.3553,115.7633l-11.9903-5.5402-.1619,2.6312,2.7287,1.185-.3025,4.9108-2.8562.9003-.1658,2.6986,12.5869-4.1633.1611-2.6224ZM22.7479,118.2807l.2061-3.3514,4.4563,1.9397-4.6624,1.4117Z" fill="#c82a31" stroke-width="0"/><polygon points="30.3549 131.2305 22.1492 131.6965 30.0698 126.2013 29.9324 123.7878 17.6452 124.4847 17.7759 126.7901 25.7885 126.3356 18.0571 131.7435 18.198 134.2328 30.4857 133.5355 30.3549 131.2305" fill="#c82a31" stroke-width="0"/><path d="M22.2787,148.1233l4.8184-.9066-.9907-5.2639-2.038.3831.5264,2.797-1.5341.289c-.3554-.3147-.6824-.71-.9797-1.187-.2974-.4758-.4944-.9698-.5912-1.4816-.1943-1.0342.0071-1.9377.6046-2.7109.5978-.7732,1.6147-1.2949,3.05-1.5649,1.3307-.2504,2.3942-.1252,3.1895.3775.7945.5027,1.2924,1.2873,1.4938,2.3543.1323.7045.0715,1.3236-.1844,1.8587-.2551.5351-.6635.9434-1.2258,1.2261l.9102,2.3397c1.0658-.4509,1.8334-1.1582,2.3046-2.1209.4711-.9627.5651-2.1948.2823-3.6969-.2172-1.1547-.5999-2.0822-1.1468-2.7816-.7143-.9197-1.6107-1.5507-2.6891-1.8947s-2.2477-.3973-3.5073-.16c-1.1602.218-2.1901.6567-3.0876,1.3162-.8987.6587-1.5246,1.5081-1.8784,2.5486s-.4115,2.1932-.173,3.4584c.1872.9951.5607,1.9428,1.1203,2.8431.5595.8995,1.1349,1.559,1.726,1.9772Z" fill="#c82a31" stroke-width="0"/><polygon points="35.3862 154.5074 30.7814 156.0115 29.269 151.3831 33.8737 149.8785 33.1013 147.5168 21.4033 151.3392 22.1749 153.7014 27.2899 152.0299 28.8026 156.6583 23.6869 158.3295 24.4589 160.6917 36.1573 156.8696 35.3862 154.5074" fill="#c82a31" stroke-width="0"/><path d="M38.2957,161.6666l-13.1761.9086,1.1234,2.3847,2.9617-.2725,2.0968,4.4507-2.0707,2.1632,1.1511,2.4455,9.0342-9.7031-1.1203-2.3772ZM32.8368,167.533l-1.4307-3.0378,4.8401-.4431-3.4094,3.4809Z" fill="#c82a31" stroke-width="0"/><rect x="31.1114" y="171.8281" width="12.3075" height="2.4851" transform="translate(-81.7427 42.0009) rotate(-30.0874)" fill="#c82a31" stroke-width="0"/><path d="M52.3192,183.9357l-1.5151-1.9693-5.3973,4.1498c-.772.5935-1.3462.9892-1.7233,1.1878-.3775.1982-.7894.2429-1.236.1347-.447-.1078-.8853-.4415-1.3154-1.0007-.4225-.55-.6357-1.0768-.6373-1.5803-.0027-.5031.1639-.9501.4984-1.3418.2104-.2397.7357-.6819,1.5744-1.3268l5.2839-4.0634-1.5143-1.97-5.2046,4.0021c-1.0915.8391-1.8674,1.5381-2.3275,2.0968-.3092.3783-.528.84-.6563,1.3837-.1291.5438-.1165,1.1396.0387,1.7865.1552.6464.5908,1.4358,1.3071,2.3677.5939.772,1.1732,1.3217,1.7395,1.649.5654.3274,1.1254.5063,1.6779.5363.5528.0305,1.1116-.0869,1.6774-.3526.5659-.2654,1.4343-.8482,2.605-1.749l5.1248-3.9406Z" fill="#c82a31" stroke-width="0"/><polygon points="58.7281 190.5978 52.8771 196.3694 55.1908 187.0119 53.4928 185.2906 44.7311 193.9338 46.3521 195.5769 52.066 189.9412 49.8369 199.1096 51.5875 200.8842 60.3495 192.2413 58.7281 190.5978" fill="#c82a31" stroke-width="0"/><rect x="52.6198" y="197.6527" width="12.3073" height="2.4852" transform="translate(-130.5697 114.2619) rotate(-49.4537)" fill="#c82a31" stroke-width="0"/><polygon points="71.105 200.6307 63.3159 206.2328 66.1453 197.0317 63.9639 195.4486 60.2958 207.9929 62.4424 209.5511 73.2386 202.179 71.105 200.6307" fill="#c82a31" stroke-width="0"/><polygon points="77.824 212.6154 78.8423 210.8096 73.4597 207.7753 74.7996 205.3985 80.5842 208.6594 81.6066 206.8458 73.6567 202.3646 67.6134 213.0861 75.7674 217.6826 76.7862 215.876 70.7962 212.4997 72.4413 209.5819 77.824 212.6154" fill="#c82a31" stroke-width="0"/><path d="M91.1884,212.5771c-.1145-.6595-.404-1.2056-.8699-1.6384-.4656-.432-1.3063-.9008-2.5209-1.405l-4.831-2.0044-4.7169,11.3679,2.2955.9525,1.9693-4.7457.4648.1931c.528.2184.8948.4205,1.1025.6073.2077.186.372.4391.494.7594.1216.3198.2934,1.0441.5161,2.1727l.633,3.1622,2.7452,1.1388-.4675-2.7934c-.1816-1.1112-.3621-1.9073-.5414-2.3875-.1793-.481-.4573-.9683-.8333-1.4642,1.0576.2693,1.9527.2302,2.6848-.1173.7318-.3479,1.2751-.9481,1.6289-1.801.2788-.6717.361-1.3375.2468-1.9969ZM88.5151,213.7401c-.1414.3411-.3369.5935-.5864.7566-.2492.1631-.5303.2341-.8427.2136-.3131-.0209-1.0196-.2598-2.1205-.7163l-1.6984-.7041,1.1973-2.885,1.7904.7432c.9308.3862,1.484.631,1.6589.7337.3467.2168.5734.4849.68.8044.1066.3203.0806.6713-.0786,1.054Z" fill="#c82a31" stroke-width="0"/><path d="M97.8959,212.8018c-.9106-.2555-1.7269-.336-2.4475-.2421-.7211.0948-1.3264.3566-1.8157.7858-.4897.4301-.819.9465-.9884,1.5496-.2634.9382-.122,1.8346.4225,2.6911.3874.6082,1.1779,1.251,2.3713,1.9286.9272.5275,1.5175.8794,1.7711,1.0547.368.2603.6073.5122.7167.7546.109.2429.124.5043.0458.7847-.122.4367-.4249.7629-.907.9793-.4818.2164-1.108.2168-1.8785.0004-.7281-.2037-1.2549-.5489-1.5803-1.0358-.3254-.4861-.449-1.14-.3696-1.9606l-2.3914-.4265c-.216,1.3694-.0193,2.5131.5896,3.4308.6089.9173,1.662,1.5866,3.1602,2.006,1.0291.2891,1.9294.3858,2.6998.291.7708-.0947,1.4279-.3854,1.9713-.8727.5434-.4869.9102-1.0701,1.101-1.749.2097-.7491.2286-1.4224.0561-2.0202-.1722-.5978-.496-1.1215-.9718-1.5717-.475-.4498-1.2562-.9758-2.3433-1.5771-1.0867-.601-1.7458-1.0706-1.9764-1.4081-.1813-.2665-.2326-.5394-.154-.8194.0861-.3076.2815-.5169.5864-.6295.4731-.1754,1.0575-.165,1.7529.03.6733.1887,1.1409.4636,1.4034.8245.2618.3617.3586.8612.2902,1.4985l2.4222.5659c.2673-1.099.1169-2.0803-.4521-2.9431-.569-.8628-1.5973-1.5025-3.0844-1.9199Z" fill="#c82a31" stroke-width="0"/><rect x="97.9663" y="219.5792" width="12.3071" height="2.485" transform="translate(-132.5827 280.6134) rotate(-78.9321)" fill="#c82a31" stroke-width="0"/><polygon points="122.3566 221.3945 119.5142 216.4932 117.0626 216.4656 117.0652 216.4438 107.3534 215.2876 107.107 217.3548 110.7336 217.7868 109.5248 227.9404 111.9925 228.2338 113.2012 218.0802 116.8188 218.511 116.9885 217.0874 121.0302 223.6382 120.9725 228.8175 123.4485 228.8452 123.5065 223.6824 128.1109 216.5891 125.2484 216.5575 122.3566 221.3945" fill="#c82a31" stroke-width="0"/><path d="M142.3939,216.1887c-1.2498-.9426-2.7705-1.2731-4.5621-.9919-.99.1556-1.8382.4533-2.545.8928-.5323.327-.999.7744-1.3994,1.3418-.4012.5671-.6915,1.1819-.8707,1.8441-.2385.8992-.2603,1.9673-.0656,3.2061.3032,1.9353,1.0756,3.3704,2.3163,4.3058,1.2404.9351,2.7642,1.2612,4.572.9773,1.786-.2803,3.1255-1.0587,4.0187-2.335.8928-1.2762,1.185-2.8953.8766-4.8582-.3104-1.98-1.0911-3.4406-2.3408-4.3828ZM141.7451,224.2321c-.5169.8036-1.2645,1.2818-2.2433,1.4358-.9785.1536-1.8417-.0746-2.5892-.6855-.7476-.6105-1.2293-1.6044-1.4453-2.981-.22-1.3987-.0746-2.4941.436-3.285.5098-.791,1.2715-1.266,2.2832-1.4252,1.0113-.1591,1.8769.0569,2.5956.6461.7183.59,1.1874,1.5815,1.4062,2.9742.2215,1.4105.0734,2.517-.4431,3.3206Z" fill="#c82a31" stroke-width="0"/><polygon points="153.5399 216.8494 148.5959 218.2484 147.8026 215.4451 153.53 213.8245 152.9633 211.8213 144.8445 214.1187 148.1963 225.9609 150.5869 225.2841 149.163 220.2516 154.1065 218.8526 153.5399 216.8494" fill="#c82a31" stroke-width="0"/><polygon points="164.7143 218.1512 163.3116 215.1091 168.9233 212.5226 168.0554 210.6394 162.4441 213.2263 161.3021 210.748 167.3328 207.9684 166.4612 206.0777 158.1734 209.8978 163.3259 221.075 171.8265 217.1566 170.9586 215.2729 164.7143 218.1512" fill="#c82a31" stroke-width="0"/><polygon points="175.2739 212.7789 170.0547 204.0934 167.9243 205.3732 174.2116 215.8361 181.6378 211.3735 180.5696 209.5957 175.2739 212.7789" fill="#c82a31" stroke-width="0"/><polygon points="184.2764 206.9046 182.2495 204.2379 187.1694 200.4991 185.9144 198.8481 180.9946 202.5869 179.3444 200.4142 184.6314 196.3967 183.3718 194.739 176.1063 200.2603 183.5522 210.0589 191.0052 204.3955 189.7507 202.7449 184.2764 206.9046" fill="#c82a31" stroke-width="0"/><path d="M195.6057,193.8907c.4774.7925.6907,1.5042.6401,2.1367-.051.6326-.3135,1.1783-.7882,1.6372-.644.6224-1.3971.8901-2.2579.804-.8621-.0861-1.8327-.6891-2.9139-1.8078-1.0192-1.0543-1.5515-2.0147-1.5977-2.8807-.0466-.8652.2583-1.6151.9142-2.2489.475-.4588,1.007-.7159,1.5957-.7712.5888-.0553,1.157.0964,1.7051.4537l1.3608-2.1316c-.8857-.5137-1.7126-.7657-2.4803-.755-1.2952.0134-2.4834.543-3.5662,1.5886-1.24,1.1981-1.8465,2.5723-1.8196,4.1218.0264,1.5499.7518,3.0615,2.175,4.5349,1.3454,1.3932,2.7844,2.1253,4.3165,2.1976,1.5329.0718,2.8866-.4601,4.0621-1.5958.9497-.9173,1.5073-1.9089,1.6724-2.975.1647-1.0658-.0869-2.2106-.7543-3.4332l-2.2639,1.1246Z" fill="#c82a31" stroke-width="0"/><polygon points="200.0375 180.0556 198.4307 178.7316 192.2116 186.2802 193.8184 187.6038 196.1407 184.7855 204.0325 191.2873 205.6124 189.3693 197.7206 182.8676 200.0375 180.0556" fill="#c82a31" stroke-width="0"/><path d="M209.9735,175.5527c-.5046.0892-1.035.2745-1.5902.5548.4561-.9915.5793-1.8785.3696-2.6615-.2097-.7827-.7017-1.4255-1.4769-1.9274-.6105-.3961-1.2506-.5975-1.9196-.6042-.6693-.0067-1.2589.1801-1.7682.5599-.5098.3795-1.1227,1.1215-1.8378,2.2256l-2.8443,4.3887,10.3274,6.6941,1.3517-2.0862-4.3118-2.7938.2745-.4225c.3104-.4798.5757-.8044.7964-.975.2204-.1698.4991-.2859.836-.3483.3369-.0616,1.0804-.1003,2.2303-.1149l3.2246-.051,1.6163-2.4941-2.8321-.0446c-1.1258-.0225-1.9412.0103-2.4459.1003ZM206.713,175.3351c-.077.3041-.4391.9561-1.0879,1.9563l-.9999,1.5428-2.6204-1.6984,1.0543-1.6277c.5481-.8455.8889-1.345,1.0216-1.4986.276-.3017.5801-.4758.9146-.5232.3337-.047.6748.0419,1.0219.2677.31.2006.5228.4387.6382.7136.1153.2745.1342.5643.0576.8676Z" fill="#c82a31" stroke-width="0"/><rect x="209.8181" y="163.8294" width="2.4853" height="12.3074" transform="translate(-38.2233 276.2768) rotate(-61.9403)" fill="#c82a31" stroke-width="0"/><path d="M218.9899,158.4393l-1.6495,1.9148c.7471.5449,1.2198,1.1187,1.4185,1.7209.1994.6026.169,1.2072-.0905,1.8145-.3526.8233-.9422,1.3623-1.7695,1.6174-.8273.2547-1.9562.0762-3.3869-.5351-1.3477-.5765-2.2117-1.2553-2.5905-2.0348-.3787-.7799-.3885-1.5891-.03-2.4278.2599-.6073.65-1.0504,1.1716-1.33.5212-.2792,1.1037-.3601,1.7478-.2432l.4265-2.4929c-1.0156-.1295-1.8753-.0411-2.579.267-1.1882.5141-2.0779,1.4634-2.6698,2.8475-.678,1.5854-.7037,3.0872-.0778,4.5052.6259,1.4184,1.8812,2.5304,3.7644,3.3356,1.7806.7614,3.3909.8779,4.8311.3495,1.4406-.5284,2.4818-1.544,3.1247-3.0465.5189-1.2143.6484-2.3445.3866-3.3913-.2618-1.046-.9374-2.0032-2.0277-2.8708Z" fill="#c82a31" stroke-width="0"/><path d="M221.2443,147.5693c.2653-1.0934.4106-1.9424.4363-2.5466.0103-.4466-.0774-.9098-.2634-1.39-.186-.4798-.4968-.9134-.9327-1.3016-.4355-.3873-1.0208-.6705-1.7552-.849-.9513-.2302-1.7845-.1876-2.4973.1288-.7128.3167-1.2427.7957-1.5883,1.4374-.2278.4174-.5197,1.3604-.8759,2.8286l-.9398,3.8754,11.9611,2.9005.5856-2.4147-4.512-1.0942.3815-1.5744ZM219.1518,147.3292l-.3206,1.3221-3.394-.8237.2827-1.1664c.2113-.8699.3787-1.4426.5031-1.7178.1658-.3743.4213-.6551.7661-.8419.3452-.1876.7345-.2282,1.1697-.1228.3538.0857.6417.2524.8636.4988.2227.2472.3574.5461.4048.8972.047.3514-.0446,1.003-.2753,1.9547Z" fill="#c82a31" stroke-width="0"/><path d="M222.7231,128.7756c-1.9906-.2291-3.6069.1327-4.8492,1.0851-1.2419.9532-1.9669,2.3302-2.1743,4.1317-.1145.9951-.0544,1.8919.1805,2.6907.173.6002.4794,1.1697.9189,1.7075.4391.5378.9545.9817,1.5452,1.3316.8024.4695,1.8259.7763,3.0714.92,1.9464.2235,3.5358-.1366,4.7682-1.082,1.2328-.9454,1.9535-2.3275,2.1632-4.1459.2065-1.796-.1852-3.2946-1.1764-4.4958s-2.4743-1.9156-4.4476-2.143ZM226.236,135.1798c-.1133.984-.5639,1.7552-1.3521,2.3124-.7878.5568-1.8741.7558-3.259.5963-1.4062-.1619-2.423-.5947-3.049-1.2976-.6259-.7029-.8806-1.5629-.7633-2.5809.1169-1.0172.556-1.7936,1.3162-2.3286.7601-.5351,1.8406-.7219,3.242-.5604,1.4172.1635,2.4443.601,3.0813,1.3138.6357.7128.8976,1.561.7838,2.545Z" fill="#c82a31" stroke-width="0"/><polygon points="216.3082 114.6403 224.9606 116.2578 216.4358 118.6847 216.529 121.638 225.0494 123.6212 216.6581 125.7413 216.7379 128.2839 228.9469 124.9598 228.862 122.2663 219.5889 120.1142 228.708 117.3745 228.6251 114.7398 216.2297 112.1399 216.3082 114.6403" fill="#c82a31" stroke-width="0"/><polygon points="225.611 107.6398 222.3097 108.2076 221.2621 102.1185 219.2186 102.47 220.2658 108.5594 217.577 109.0219 216.4512 102.4778 214.3994 102.8305 215.9465 111.824 228.0758 109.737 226.4888 100.5121 224.4453 100.8636 225.611 107.6398" fill="#c82a31" stroke-width="0"/><path d="M212.0696,93.497c-.0411.6342.1271,1.5815.5035,2.8416l1.4982,5.0111,11.7913-3.5247-.7112-2.3808-4.9227,1.4714-.1445-.483c-.1638-.5465-.2389-.9592-.2255-1.238.0131-.2784.1055-.5659.2769-.8624.1713-.2965.6235-.8877,1.358-1.773l2.051-2.4882-.851-2.8475-1.8698,2.1273c-.7471.8431-1.2502,1.4852-1.5092,1.9279-.259.4423-.4616.9662-.6085,1.5708-.4597-.9904-1.0551-1.6593-1.7872-2.0072-.7318-.3475-1.54-.3893-2.4246-.1248-.6973.2085-1.2652.5651-1.7043,1.0701-.4387.5051-.6792,1.0749-.7203,1.7095ZM214.5139,93.73c.1812-.2847.4695-.4865.8663-.605.3538-.1058.6725-.1137.9568-.0233.2843.0904.5165.2634.6981.5184.1816.2555.4431.9545.7847,2.0964l.5264,1.7616-2.9921.8944-.5556-1.8583c-.2882-.9651-.4482-1.5483-.4786-1.7493-.0517-.4052.0134-.7502.1939-1.035Z" fill="#c82a31" stroke-width="0"/></g></svg>